<?xml version="1.0" standalone="no"?>
<!DOCTYPE svg PUBLIC "-//W3C//DTD SVG 20010904//EN"
 "http://www.w3.org/TR/2001/REC-SVG-20010904/DTD/svg10.dtd">
<svg version="1.0" xmlns="http://www.w3.org/2000/svg"
 width="70.000000pt" height="70.000000pt" viewBox="0 0 70.000000 70.000000"
 preserveAspectRatio="xMidYMid meet">
<metadata>
Created by potrace 1.11, written by Peter Selinger 2001-2013
</metadata>
<g transform="translate(0.000000,70.000000) scale(0.100000,-0.100000)"
fill="#000000" stroke="none">
<path d="M30 355 l0 -315 315 0 315 0 0 315 0 315 -315 0 -315 0 0 -315z m190
195 l0 -70 -70 0 -70 0 0 70 0 70 70 0 70 0 0 -70z m200 0 l0 -70 -70 0 -70 0
0 70 0 70 70 0 70 0 0 -70z m190 0 l0 -70 -70 0 -70 0 0 70 0 70 70 0 70 0 0
-70z m-390 -195 l0 -75 -70 0 -70 0 0 75 0 75 70 0 70 0 0 -75z m200 0 l0 -75
-70 0 -70 0 0 75 0 75 70 0 70 0 0 -75z m190 0 l0 -75 -70 0 -70 0 0 75 0 75
70 0 70 0 0 -75z m0 -195 l0 -70 -265 0 -265 0 0 70 0 70 265 0 265 0 0 -70z"/>
</g>
</svg>
